# xmcd
#
# Track frame offsets:
# 150
# 15920
# 35275
# 53313
# 73874
# 93723
#
# Disc length: 1516 seconds
#
# Revision: 0
# Processed by: cddbd v1.5.2PL0 Copyright (c) Steve Scherf et al.
# Submitted via: Audion 3.0.2 (http://www.panic.com/audion/)
#
DISCID=3f05ea06
DTITLE=DIR EN GREY - TSM
DYEAR=1900
DGENRE=
TTITLE0=jyuyoku
TTITLE1=THE FINAL
TTITLE2=reiketsu
TTITLE3=zan
TTITLE4=syokubeni
TTITLE5=syokubeni S
EXTD=
EXTT0=
EXTT1=
EXTT2=
EXTT3=
EXTT4=
EXTT5=
PLAYORDER=
